<?xml version="1.0" encoding="UTF-8"?>
<svg width="49px" height="46px" viewBox="0 0 49 46" version="1.1" xmlns="http://www.w3.org/2000/svg" xmlns:xlink="http://www.w3.org/1999/xlink">
    <!-- Generator: Sketch 42 (36781) - http://www.bohemiancoding.com/sketch -->
    <title>Alarm clock Icon</title>
    <desc>Created with Sketch.</desc>
    <defs></defs>
    <g id="ShedWool" stroke="none" stroke-width="1" fill="none" fill-rule="evenodd">
        <g id="Shedwool-project-page" transform="translate(-204.000000, -3555.000000)" fill="#858585">
            <g id="1.1-testing-takeaways" transform="translate(0.000000, 3360.000000)">
                <g id="testing-takeaways" transform="translate(204.000000, 189.000000)">
                    <g id="Avail-vs.-Time" transform="translate(0.000000, 2.000000)">
                        <g id="Alarm-clock-Icon" transform="translate(0.000000, 4.000000)">
                            <g id="alarm-clock-icon">
                                <path d="M25.5486875,20.399 L25.5486875,7.9454375 L23.4576875,7.9454375 L23.4576875,20.399 C22.49825,20.724125 21.746,21.4795625 21.4176875,22.439 L12.8975,22.439 L12.8975,24.53 L21.4176875,24.53 C21.8575625,25.8209375 23.065625,26.7580625 24.5031875,26.7580625 C26.3105,26.7580625 27.7735625,25.295 27.7735625,23.4876875 C27.7735625,22.04375 26.8364375,20.8356875 25.5486875,20.399 Z" id="Shape"></path>
                                <path d="M2.487125,7.3334375 C2.4903125,6.0425 2.9811875,4.761125 3.9629375,3.7761875 C4.947875,2.79125 6.22925,2.3035625 7.5201875,2.300375 C8.8079375,2.300375 10.0925,2.79125 11.0774375,3.7761875 L12.55325,2.300375 L12.55325,2.2971875 C11.1666875,0.910625 9.34025,0.2125625 7.5201875,0.2125625 C5.700125,0.2125625 3.8673125,0.9074375 2.4839375,2.300375 C1.097375,3.6869375 0.396125,5.5165625 0.3993125,7.3334375 C0.396125,9.1503125 1.097375,10.9799375 2.4839375,12.3696875 L3.9629375,10.893875 C2.9811875,9.90575 2.4903125,8.624375 2.487125,7.3334375 Z" id="Shape"></path>
                                <path d="M46.5160625,2.300375 C45.1263125,0.910625 43.2966875,0.2125625 41.4798125,0.2125625 C39.6629375,0.2125625 37.830125,0.910625 36.4435625,2.300375 L37.92575,3.7761875 C38.9106875,2.79125 40.188875,2.3035625 41.4798125,2.300375 C42.77075,2.300375 44.052125,2.79125 45.04025,3.7761875 C46.022,4.761125 46.5096875,6.0425 46.5096875,7.3334375 C46.5096875,8.624375 46.0251875,9.9089375 45.04025,10.893875 L46.5160625,12.3696875 C47.902625,10.9799375 48.6006875,9.1503125 48.6006875,7.3334375 C48.6006875,5.513375 47.8994375,3.68375 46.5160625,2.300375 Z" id="Shape"></path>
                                <polygon id="Shape" points="46.5160625 12.3696875 46.51925 12.372875"></polygon>
                                <path d="M45.3175625,23.4813125 C45.314375,11.9871875 35.9973125,2.6669375 24.5031875,2.6669375 C13.005875,2.6669375 3.6888125,11.9871875 3.685625,23.4813125 C3.6888125,29.1805625 5.980625,34.341125 9.6876875,38.0991875 L3.481625,44.3084375 L4.9574375,45.7874375 L11.2145,39.5335625 L10.9754375,39.2945 C14.6155625,42.411875 19.3394375,44.298875 24.506375,44.298875 C29.6733125,44.298875 34.394,42.411875 38.034125,39.2976875 L37.79825,39.5335625 L44.0553125,45.790625 L45.531125,44.311625 L39.321875,38.102375 C43.0225625,34.341125 45.314375,29.1805625 45.3175625,23.4813125 Z M24.5,42.207875 C14.15975,42.18875 5.7925625,33.8215625 5.7734375,23.4813125 C5.7925625,13.1410625 14.15975,4.7770625 24.5,4.7579375 C34.84025,4.7770625 43.2074375,13.1410625 43.2265625,23.4813125 C43.210625,33.82475 34.8434375,42.1919375 24.5,42.207875 Z" id="Shape"></path>
                            </g>
                        </g>
                    </g>
                </g>
            </g>
        </g>
    </g>
</svg>