<?xml version="1.0" encoding="UTF-8"?>
<svg width="49px" height="51px" viewBox="0 0 49 51" version="1.1" xmlns="http://www.w3.org/2000/svg" xmlns:xlink="http://www.w3.org/1999/xlink">
    <!-- Generator: Sketch 42 (36781) - http://www.bohemiancoding.com/sketch -->
    <title>Calendar Icon</title>
    <desc>Created with Sketch.</desc>
    <defs></defs>
    <g id="ShedWool" stroke="none" stroke-width="1" fill="none" fill-rule="evenodd">
        <g id="Shedwool-project-page" transform="translate(-206.000000, -3719.000000)" fill="#858585">
            <g id="1.1-testing-takeaways" transform="translate(0.000000, 3360.000000)">
                <g id="testing-takeaways" transform="translate(204.000000, 189.000000)">
                    <g id="Week-View" transform="translate(2.000000, 170.000000)">
                        <g id="Calendar-Icon">
                            <g id="Layer_1">
                                <g id="Group">
                                    <path d="M48.8965453,9.00962075 C48.8829547,6.43813774 47.0084736,4.13985283 44.5361,3.66372075 C44.1497396,3.58938868 43.6878453,3.51357736 43.1843472,3.51357736 L43.1647472,3.51357736 C42.3946151,3.5166283 41.6247604,3.51598113 40.8546283,3.51551887 L39.9336132,3.5150566 C39.3209283,3.5150566 38.8241792,4.01180566 38.8241792,4.62449057 C38.8241792,5.23717547 39.3209283,5.73392453 39.9336132,5.73392453 L40.8529642,5.73438679 C41.6264245,5.73503396 42.3999774,5.73558868 43.1734377,5.73244528 L43.1845321,5.73244528 C43.5008132,5.73244528 43.8194057,5.7853283 44.1166415,5.84246415 C45.5686132,6.12213396 46.669634,7.48867925 46.6776774,9.02136226 C46.6906208,11.4210679 46.6994962,15.8955075 46.6914528,19.0450981 L2.31011887,19.0450981 C2.31085849,15.7699566 2.31067358,11.7302302 2.30854717,9.29178679 C2.30826981,8.94139057 2.34340189,8.61133396 2.41606981,8.28247925 C2.73364528,6.84400566 4.06080566,5.7737717 5.57194717,5.73771509 C6.42103396,5.71746792 7.29101509,5.71598868 8.13233585,5.71460189 C8.52026792,5.71395472 8.90829245,5.71321509 9.29613208,5.71090377 C9.90881698,5.70711321 10.4025151,5.20740566 10.3987245,4.5946283 C10.394934,3.98425472 9.89901698,3.49203585 9.28947547,3.49203585 L9.28244906,3.49203585 C8.89793774,3.49443962 8.51333396,3.49508679 8.12873019,3.49573396 C7.27529811,3.49721321 6.3927434,3.49869245 5.5189717,3.51949434 C2.9596,3.58069811 0.792690566,5.34266415 0.249530189,7.80403585 C0.141545283,8.29246415 0.089309434,8.77978302 0.0896792453,9.29382075 C0.0924528302,12.4941679 0.0918056604,18.4533075 0.0904188679,21.8195151 L0.0904188679,21.8198849 C0.0808037736,27.8949604 0.0855188679,34.2836358 0.0901415094,40.462166 L0.0931,44.6060868 C0.0947641509,47.1840415 1.97118679,49.4848226 4.45798302,49.9577189 C4.84656226,50.0315887 5.31252453,50.1071226 5.8229566,50.1071226 C9.84271321,50.1065679 13.8626547,50.1065679 17.8824113,50.1068453 C26.2465264,50.1069377 34.8946566,50.1073075 43.4009642,50.101483 C45.9730943,50.099634 48.2735057,48.2253377 48.7518566,45.7415 C48.8217509,45.3787151 48.9019075,44.8955566 48.9019075,44.3740302 C48.9000585,36.5962509 48.9002434,28.8185642 48.9015377,21.0408774 C48.9224321,18.1533906 48.9125396,11.986417 48.8965453,9.00962075 Z M46.5731132,45.3218566 C46.2967717,46.756817 44.9027679,47.8815981 43.3994849,47.8826151 C34.893917,47.8883472 26.2461566,47.8878849 17.8825962,47.8879774 C13.8626547,47.8877 9.84271321,47.8877 5.82286415,47.8882547 C5.49706038,47.8882547 5.1597,47.8324132 4.87272642,47.777866 C3.43776604,47.5050377 2.31298491,46.1112189 2.31215283,44.6047 L2.30919434,40.4605019 C2.30466415,34.4414528 2.30004151,28.2236302 2.30873208,22.291117 C2.30882453,22.2878811 2.30928679,22.2847377 2.30928679,22.2814094 C2.3094717,21.9693811 2.30956415,21.6282302 2.30974906,21.2641509 L46.6828547,21.2641509 C46.6815604,28.9675981 46.6813755,36.6710453 46.6832245,44.3744 C46.6830396,44.6380755 46.6502189,44.9215358 46.5731132,45.3218566 Z" id="Shape"></path>
                                    <path d="M9.16743774,13.6791358 C9.75053774,15.5918925 11.4095113,16.8278943 13.3940113,16.8278943 C13.5347245,16.8278943 13.6784887,16.8216075 13.8212358,16.8092189 C15.6504151,16.6505698 17.0816774,15.4865887 17.6495226,13.6955925 C18.1615264,12.0812736 17.6070868,10.1992113 16.2699415,9.01220943 C15.6291509,8.44343962 14.7789547,8.15507925 14.6840981,8.12410755 C14.6656075,8.11809811 14.6469321,8.11255094 14.6280717,8.10737358 C14.6139264,8.10349057 14.5726925,8.09285849 14.5124132,8.07880566 L14.5123208,7.43108113 C14.5121358,5.52535094 14.5119509,3.61971321 14.5143547,1.71453774 C14.5144472,1.64529057 14.5133377,1.5760434 14.5122283,1.50679623 C14.5102868,1.39150755 14.5083453,1.28269057 14.5149094,1.19643208 C14.561783,0.585503774 14.1045113,0.0523283019 13.4934906,0.00545471698 C12.8808981,-0.0416962264 12.3492943,0.415945283 12.3025132,1.02687358 C12.2879981,1.21686415 12.2909566,1.39113774 12.2935453,1.54497925 C12.2945623,1.60017358 12.2954868,1.65527547 12.2954868,1.71102453 C12.293083,3.61767925 12.2932679,5.52442642 12.2934528,7.43117358 L12.2935453,8.10765094 C12.0360642,8.17754528 11.7822811,8.26620755 11.5534604,8.37058679 C9.80674906,9.16780755 8.42633585,11.2470717 9.16743774,13.6791358 Z M12.4746604,10.3893868 C12.7877981,10.2465472 13.1914472,10.1611208 13.4009453,10.1611208 C13.6330943,10.1611208 13.9042585,10.2146509 14.0206566,10.2423868 C14.1771792,10.2992453 14.5641868,10.4650132 14.796983,10.6717377 C15.4895472,11.2864566 15.7859509,12.2321566 15.5345717,13.0249396 C15.2383528,13.9589906 14.5618755,14.5178679 13.6295811,14.5987642 C13.5503491,14.6056057 13.471117,14.6091189 13.3941038,14.6091189 C12.1972094,14.6091189 11.5223962,13.794517 11.2899698,13.0323358 C10.9207132,11.8205566 11.6063434,10.7855472 12.4746604,10.3893868 Z" id="Shape"></path>
                                    <path d="M17.839883,5.733 C20.058566,5.73355472 22.2772491,5.73392453 24.4959321,5.73392453 C26.7146151,5.73392453 28.9332981,5.73364717 31.1519811,5.733 C31.7647585,5.73281509 32.2613226,5.23597358 32.2611377,4.62328868 C32.2609528,4.01060377 31.7642962,3.51413208 31.1517038,3.51413208 L31.1514264,3.51413208 C26.7144302,3.51533396 22.277434,3.51533396 17.8403453,3.51413208 L17.8400679,3.51413208 C17.2274755,3.51413208 16.7308189,4.01069623 16.730634,4.62328868 C16.7305415,5.23597358 17.2271057,5.73281509 17.839883,5.733 Z" id="Shape"></path>
                                    <path d="M31.3603698,13.6790434 C31.9432849,15.5918 33.6022585,16.8278019 35.5868509,16.8278943 C35.7275642,16.8278943 35.8714208,16.8216075 36.0141679,16.8092189 C37.8433472,16.6505698 39.2746094,15.4865887 39.8424547,13.6955925 C40.354366,12.081366 39.8000189,10.1993038 38.4627811,9.01211698 C37.8218981,8.44343962 36.9718868,8.15507925 36.8771226,8.12410755 C36.8585396,8.11800566 36.8397717,8.11245849 36.8209113,8.10737358 C36.8064887,8.10349057 36.7641453,8.09239623 36.7018321,8.07797358 L36.7018321,7.43108113 C36.7016472,5.52535094 36.7014623,3.61971321 36.703866,1.71407547 C36.7039585,1.64547547 36.7028491,1.57687547 36.7017396,1.50827547 C36.6997057,1.39252453 36.6977642,1.28315283 36.7044208,1.19643208 C36.7512943,0.585503774 36.2940226,0.0523283019 35.6830019,0.00545471698 C35.070317,-0.0416962264 34.5388057,0.415945283 34.4920245,1.02687358 C34.477417,1.21741887 34.4804679,1.39224717 34.4830566,1.54655094 C34.4840736,1.60137547 34.4849981,1.6562 34.4849981,1.71111698 C34.4825943,3.6177717 34.4827792,5.52451887 34.4829642,7.43126604 L34.4829642,8.10866792 C34.2267774,8.17837736 33.9741038,8.26676226 33.7463,8.37067925 C31.9995887,9.16780755 30.6192679,11.2470717 31.3603698,13.6790434 Z M34.6675,10.3893868 C34.9806377,10.2464547 35.3843792,10.1610283 35.5938774,10.1610283 C35.8270434,10.1610283 36.0998717,10.2150208 36.2153453,10.2427566 C36.3509736,10.2919415 36.7511094,10.4596509 36.9899151,10.6716453 C37.6824792,11.2864566 37.978883,12.2321566 37.7275962,13.0248472 C37.4313774,13.9588981 36.7549,14.5177755 35.8226057,14.5986717 C35.7433736,14.6055132 35.6641415,14.6090264 35.5871283,14.6090264 C34.3901415,14.6090264 33.7153283,13.7944245 33.4829943,13.0322434 C33.1136453,11.8205566 33.7992755,10.7855472 34.6675,10.3893868 Z" id="Shape"></path>
                                </g>
                            </g>
                        </g>
                    </g>
                </g>
            </g>
        </g>
    </g>
</svg>