<?xml version="1.0" encoding="UTF-8"?>
<svg width="35px" height="32px" viewBox="0 0 35 32" version="1.1" xmlns="http://www.w3.org/2000/svg" xmlns:xlink="http://www.w3.org/1999/xlink">
    <!-- Generator: Sketch 42 (36781) - http://www.bohemiancoding.com/sketch -->
    <title>Page 1 Copy 2</title>
    <desc>Created with Sketch.</desc>
    <defs></defs>
    <g id="ShedWool" stroke="none" stroke-width="1" fill="none" fill-rule="evenodd">
        <g id="Shedwool-project-page" transform="translate(-624.000000, -9242.000000)" fill="#2B2827">
            <g id="2.0-beginning-to-ideate" transform="translate(0.000000, 7599.000000)">
                <g id="round-one" transform="translate(0.000000, 597.000000)">
                    <g id="takeaways" transform="translate(198.000000, 1046.000000)">
                        <g id="icons-plus-text" transform="translate(320.000000, 0.000000)">
                            <path d="M121.861755,0.00517425815 C120.677636,0.0342803137 119.484838,0.18933621 118.314822,0.476692358 C109.60886,2.60778483 104.307173,11.2443453 106.491529,19.7385507 C108.676427,28.2327562 117.528844,33.4173385 126.235348,31.2857168 C134.941853,29.1546243 140.242997,20.505363 138.058641,12.0116868 C137.7321,11.0813514 136.306058,11.4406789 136.482347,12.4085875 C138.452444,20.0693014 133.693727,27.8130998 125.841004,29.735687 C117.988823,31.6582743 110.051481,27.0150646 108.080842,19.3543508 C106.110202,11.6931078 110.856443,3.94930939 118.709166,2.02672212 C122.923286,0.995309349 127.390177,1.83462215 130.900768,4.33403852 C131.260939,4.62933269 131.80174,4.56741617 132.08109,4.19750466 C132.360982,3.82759316 132.263345,3.30421336 131.867373,3.05654728 C128.940977,0.974670509 125.417368,-0.0837315116 121.861755,0.00517425815 Z M140.06725,1.58060567 L140.06725,1.58060567 C139.887164,1.60918252 139.719554,1.69597149 139.596966,1.82827174 C135.197878,6.31854231 127.231245,14.8164521 122.637427,19.5279287 L116.306213,14.0829795 C115.975874,13.7479953 115.422598,13.7622837 115.109075,14.1115564 C114.795552,14.4608291 114.854676,14.9984973 115.238173,15.2736818 L122.154124,21.2271932 C122.480665,21.5039653 122.972104,21.4812097 123.273152,21.1774483 C127.809473,16.5469394 136.261579,7.5171826 140.766439,2.92001342 C141.308867,2.37652399 140.836413,1.47317786 140.06725,1.58060567 Z" id="Page-1-Copy-2"></path>
                        </g>
                    </g>
                </g>
            </g>
        </g>
    </g>
</svg>