<?xml version="1.0" encoding="utf-8"?>
<!-- Generator: Adobe Illustrator 16.0.4, SVG Export Plug-In . SVG Version: 6.00 Build 0)  -->
<!DOCTYPE svg PUBLIC "-//W3C//DTD SVG 1.1//EN" "http://www.w3.org/Graphics/SVG/1.1/DTD/svg11.dtd">
<svg version="1.1" id="Layer_1" xmlns="http://www.w3.org/2000/svg" xmlns:xlink="http://www.w3.org/1999/xlink" x="0px" y="0px"
	 width="50px" height="50px" viewBox="-18.5 0 50 50" enable-background="new -18.5 0 50 50" xml:space="preserve">
<title>check</title>
<desc>Created with Sketch.</desc>
<g id="Symbols">
	<g id="table-details" transform="translate(-60.000000, -119.000000)">
		<g id="table-details-copy-2">
			<g id="check" transform="translate(60.000000, 119.000000)">
				<g id="Group-3" transform="translate(0.000000, 0.000086)">
					<g id="Clip-2">
					</g>
					<defs>
						<filter id="Adobe_OpacityMaskFilter" filterUnits="userSpaceOnUse" x="-16.624" y="1.876" width="46.247" height="46.247">
							<feColorMatrix  type="matrix" values="1 0 0 0 0  0 1 0 0 0  0 0 1 0 0  0 0 0 1 0"/>
						</filter>
					</defs>
					<mask maskUnits="userSpaceOnUse" x="-16.624" y="1.876" width="46.247" height="46.247" id="mask-2">
						<g filter="url(#Adobe_OpacityMaskFilter)">
							<polygon id="path-1" fill="#FFFFFF" points="-16.623,48.124 29.623,48.124 29.623,1.878 -16.623,1.878 							"/>
						</g>
					</mask>
					<path id="Fill-1" mask="url(#mask-2)" fill="#569215" d="M19.01,36.3c-6.238,6.91-16.9,7.451-23.809,1.211
						c-6.908-6.238-7.453-16.902-1.213-23.809c6.24-6.91,16.902-7.453,23.811-1.211C24.705,18.729,25.25,29.39,19.01,36.3
						 M-10.662,9.503c-8.559,9.477-7.814,24.1,1.664,32.658c9.479,8.557,24.1,7.814,32.658-1.662
						c8.557-9.48,7.818-24.1-1.662-32.658C12.518-0.72-2.102,0.022-10.662,9.503"/>
				</g>
				<polygon id="Fill-4" fill="#569215" points="4.805,26.46 -2.293,20.05 -7.426,25.731 4.898,36.862 4.918,36.841 5.375,37.253 
					20.223,20.813 14.539,15.681 				"/>
			</g>
		</g>
	</g>
</g>
</svg>
