<?xml version="1.0" encoding="UTF-8" standalone="no"?>
<svg width="41px" height="26px" viewBox="0 0 41 26" version="1.1" xmlns="http://www.w3.org/2000/svg" xmlns:xlink="http://www.w3.org/1999/xlink">
    <!-- Generator: Sketch 3.8.3 (29802) - http://www.bohemiancoding.com/sketch -->
    <title>89</title>
    <desc>Created with Sketch.</desc>
    <defs></defs>
    <g id="Restaurant-Seating" stroke="none" stroke-width="1" fill="none" fill-rule="evenodd">
        <g id="assign-modal" transform="translate(-801.000000, -518.000000)" fill="#569215">
            <g id="assign-modal-line" transform="translate(307.000000, 484.000000)">
                <g id="Line-item">
                    <path d="M533.712344,34 L495.28125,34 C494.570156,34 494,34.585 494,35.3 L494,58.7 C494,59.4215 494.570156,60 495.28125,60 L533.712344,60 C534.423437,60 535,59.4215 535,58.7 L535,35.3 C535,34.585 534.423437,34 533.712344,34 L533.712344,34 Z M529.612344,36.6 L514.5,46.1225 L499.38125,36.6 L529.612344,36.6 L529.612344,36.6 Z M496.5625,57.4 L496.5625,37.887 L514.5,49.1775 L532.4375,37.887 L532.4375,57.4 L496.5625,57.4 L496.5625,57.4 Z" id="89"></path>
                </g>
            </g>
        </g>
    </g>
</svg>