<?xml version="1.0" encoding="UTF-8" standalone="no"?>
<svg width="19px" height="26px" viewBox="0 0 19 26" version="1.1" xmlns="http://www.w3.org/2000/svg" xmlns:xlink="http://www.w3.org/1999/xlink">
    <!-- Generator: Sketch 3.8.3 (29802) - http://www.bohemiancoding.com/sketch -->
    <title>126</title>
    <desc>Created with Sketch.</desc>
    <defs></defs>
    <g id="Restaurant-Seating" stroke="none" stroke-width="1" fill="none" fill-rule="evenodd">
        <g id="assign-modal" transform="translate(-1031.000000, -519.000000)" fill="#A42A2A">
            <g id="assign-modal-line" transform="translate(307.000000, 484.000000)">
                <g id="Line-item">
                    <path d="M736.270693,35 L730.729307,35 C730.292298,35 729.937624,35.3562574 729.937624,35.7916832 L729.937624,38.1667326 L724.791683,38.1667326 C724.354674,38.1667326 724,38.5229901 724,38.9584158 C724,39.3978 724.354674,39.750099 724.791683,39.750099 L725.583366,39.750099 L725.583366,59.542178 C725.583366,59.9815621 725.93804,60.3338611 726.375049,60.3338611 L740.624951,60.3338611 C741.062751,60.3338611 741.416634,59.9815621 741.416634,59.542178 L741.416634,39.750099 L742.208317,39.750099 C742.646118,39.750099 743,39.3978 743,38.9584158 C743,38.5229901 742.646118,38.1667326 742.208317,38.1667326 L737.062376,38.1667326 L737.062376,35.7916832 C737.062376,35.3562574 736.708494,35 736.270693,35 L736.270693,35 Z M739.833267,39.750099 L739.833267,58.7504948 L727.166733,58.7504948 L727.166733,39.750099 L739.833267,39.750099 L739.833267,39.750099 Z M735.874852,57.1671285 C736.312652,57.1671285 736.666535,56.8148295 736.666535,56.3754453 L736.666535,42.9168316 C736.666535,42.4814059 736.312652,42.1251484 735.874852,42.1251484 C735.438238,42.1251484 735.083168,42.4814059 735.083168,42.9168316 L735.083168,56.3754453 C735.083168,56.8148295 735.438238,57.1671285 735.874852,57.1671285 L735.874852,57.1671285 Z M731.124753,57.1671285 C731.562553,57.1671285 731.916832,56.8148295 731.916832,56.3754453 L731.916832,42.9168316 C731.916832,42.4814059 731.562553,42.1251484 731.124753,42.1251484 C730.688139,42.1251484 730.333465,42.4814059 730.333465,42.9168316 L730.333465,56.3754453 C730.333465,56.8148295 730.688139,57.1671285 731.124753,57.1671285 L731.124753,57.1671285 Z M731.52099,38.1667326 L731.52099,36.5833663 L735.47901,36.5833663 L735.47901,38.1667326 L731.52099,38.1667326 L731.52099,38.1667326 Z" id="126"></path>
                </g>
            </g>
        </g>
    </g>
</svg>