<?xml version="1.0" encoding="UTF-8" standalone="no"?>
<svg width="7px" height="19px" viewBox="0 0 7 19" version="1.1" xmlns="http://www.w3.org/2000/svg" xmlns:xlink="http://www.w3.org/1999/xlink">
    <!-- Generator: Sketch 3.8.3 (29802) - http://www.bohemiancoding.com/sketch -->
    <title>i</title>
    <desc>Created with Sketch.</desc>
    <defs></defs>
    <g id="Restaurant-Seating" stroke="none" stroke-width="1" fill="none" fill-rule="evenodd">
        <g id="Floor" transform="translate(-1243.000000, -243.000000)" fill="#FFFFFF">
            <g id="Info" transform="translate(1231.000000, 237.000000)">
                <path d="M12.9860319,12.9553617 L18.0139681,12.9553617 L18.0139681,24.4042553 L12.9860319,24.4042553 L12.9860319,12.9553617 Z M12.8989681,8.9873617 C12.8989681,8.63910464 12.9678929,8.30899092 13.1057447,7.99701064 C13.2435964,7.68503035 13.4322328,7.41295861 13.6716596,7.18078723 C13.9110863,6.94861586 14.1904133,6.76360707 14.5096489,6.62575532 C14.8288846,6.48790357 15.1698812,6.41897872 15.5326489,6.41897872 C15.880906,6.41897872 16.2073921,6.48790357 16.512117,6.62575532 C16.8168419,6.76360707 17.0889137,6.94861586 17.3283404,7.18078723 C17.5677672,7.41295861 17.7564036,7.68503035 17.8942553,7.99701064 C18.0321071,8.30899092 18.1010319,8.63910464 18.1010319,8.9873617 C18.1010319,9.35012947 18.0321071,9.68749844 17.8942553,9.99947872 C17.7564036,10.311459 17.5677672,10.5799031 17.3283404,10.8048191 C17.0889137,11.0297352 16.8168419,11.2074887 16.512117,11.3380851 C16.2073921,11.4686815 15.880906,11.5339787 15.5326489,11.5339787 C15.1698812,11.5339787 14.8288846,11.4686815 14.5096489,11.3380851 C14.1904133,11.2074887 13.9110863,11.0297352 13.6716596,10.8048191 C13.4322328,10.5799031 13.2435964,10.311459 13.1057447,9.99947872 C12.9678929,9.68749844 12.8989681,9.35012947 12.8989681,8.9873617 L12.8989681,8.9873617 Z" id="i"></path>
            </g>
        </g>
    </g>
</svg>