<?xml version="1.0" encoding="UTF-8"?>
<svg width="60px" height="49px" viewBox="0 0 60 49" version="1.1" xmlns="http://www.w3.org/2000/svg" xmlns:xlink="http://www.w3.org/1999/xlink">
    <!-- Generator: Sketch 42 (36781) - http://www.bohemiancoding.com/sketch -->
    <title>dash-icon</title>
    <desc>Created with Sketch.</desc>
    <defs></defs>
    <g id="Collaborate.biz" stroke="none" stroke-width="1" fill="none" fill-rule="evenodd">
        <g id="Collaborate.biz-project-page" transform="translate(-857.000000, -10179.000000)">
            <g id="3.0-ideation" transform="translate(1.000000, 9228.000000)">
                <g id="dashboard" transform="translate(691.000000, 944.000000)">
                    <g id="dash-icon" transform="translate(164.000000, 0.000000)">
                        <rect id="Rectangle-29" x="0" y="0" width="62" height="62"></rect>
                        <polygon id="Shape" stroke="#4A4A4A" stroke-width="2" points="25 24 37 24 37 20 25 20"></polygon>
                        <path d="M23.0004,48 C23.0004,49.657 21.6574,51 20.0004,51 C18.3434,51 17.0004,49.657 17.0004,48 C17.0004,46.343 18.3434,45 20.0004,45 C21.6574,45 23.0004,46.343 23.0004,48 L23.0004,48 Z" id="Shape" stroke="#4A4A4A" stroke-width="2"></path>
                        <path d="M45.0004,48 C45.0004,49.657 43.6574,51 42.0004,51 C40.3434,51 39.0004,49.657 39.0004,48 C39.0004,46.343 40.3434,45 42.0004,45 C43.6574,45 45.0004,46.343 45.0004,48 L45.0004,48 Z" id="Shape" stroke="#4A4A4A" stroke-width="2"></path>
                        <path d="M2.0004,37 L10.0004,37" id="Shape" stroke="#4A4A4A" stroke-width="2"></path>
                        <path d="M52.0004,37 L60.0004,37" id="Shape" stroke="#4A4A4A" stroke-width="2"></path>
                        <path d="M31.0004,8 L31.0004,16" id="Shape" stroke="#4A4A4A" stroke-width="2"></path>
                        <path d="M29.2466,33.404 C27.6576,34.18 26.6596,35.978 27.1076,37.942 C27.4376,39.388 28.6126,40.562 30.0576,40.892 C32.0226,41.341 33.8206,40.342 34.5966,38.753 C35.7466,36.399 36.8016,33.999 38.1496,31.752 L41.0006,27 L36.2486,29.851 C34.0016,31.199 31.6016,32.253 29.2466,33.404 L29.2466,33.404 Z" id="Shape" stroke="#4A4A4A" stroke-width="2"></path>
                        <path d="M10.4943,16.4939 L13.3223,19.3219" id="Shape" stroke="#4A4A4A" stroke-width="2"></path>
                        <path d="M51.5065,16.4939 L48.6785,19.3219" id="Shape" stroke="#4A4A4A" stroke-width="2"></path>
                        <path d="M4.273,25.7464 L7.96,27.2984" id="Shape" stroke="#4A4A4A" stroke-width="2"></path>
                        <path d="M54.0413,46.7014 L57.7283,48.2534" id="Shape" stroke="#4A4A4A" stroke-width="2"></path>
                        <path d="M42.254,10.2725 L40.702,13.9595" id="Shape" stroke="#4A4A4A" stroke-width="2"></path>
                        <path d="M20.0587,10.1434 L21.5677,13.8474" id="Shape" stroke="#4A4A4A" stroke-width="2"></path>
                        <path d="M57.8571,26.0583 L54.1531,27.5673" id="Shape" stroke="#4A4A4A" stroke-width="2"></path>
                        <path d="M7.8481,46.4325 L4.1441,47.9415" id="Shape" stroke="#4A4A4A" stroke-width="2"></path>
                        <path d="M31.0004,8 C14.9844,8 2.0004,20.984 2.0004,37 C2.0004,43.803 4.3494,50.054 8.2714,55 L53.7294,55 C57.6514,50.054 60.0004,43.803 60.0004,37 C60.0004,20.984 47.0164,8 31.0004,8 L31.0004,8 Z" id="Shape" stroke="#4A4A4A" stroke-width="2"></path>
                    </g>
                </g>
            </g>
        </g>
    </g>
</svg>