<?xml version="1.0" encoding="UTF-8"?>
<svg width="48px" height="39px" viewBox="0 0 48 39" version="1.1" xmlns="http://www.w3.org/2000/svg" xmlns:xlink="http://www.w3.org/1999/xlink">
    <!-- Generator: Sketch 42 (36781) - http://www.bohemiancoding.com/sketch -->
    <title>diamond</title>
    <desc>Created with Sketch.</desc>
    <defs></defs>
    <g id="Collaborate.biz" stroke="none" stroke-width="1" fill="none" fill-rule="evenodd">
        <g id="Collaborate.biz-project-page" transform="translate(-194.000000, -5217.000000)">
            <g id="1.3-competitive-landscape" transform="translate(0.000000, 3978.000000)">
                <g id="competitive-ends" transform="translate(193.000000, 1234.000000)">
                    <g id="high-end">
                        <g id="diamond">
                            <path d="M39.1313096,5.00134471 C39.0912638,5.00478978 39.0514405,5.01042898 39.0120217,5.0182365 L10.9559063,5.0182365 L10.8365639,5.0182365 C10.8309277,5.01819314 10.8252913,5.01819314 10.8196552,5.0182365 C10.7912667,5.0171354 10.7628458,5.0171354 10.7344573,5.0182365 C10.4153456,5.04116987 10.12246,5.20198691 9.93331377,5.45812674 L1.20625971,17.3690009 C0.90198976,17.7875863 0.937647631,18.3611514 1.29145758,18.7394282 L24.165939,43.6271402 L24.1828477,43.6439237 C24.2045585,43.6674685 24.2273074,43.690049 24.2510278,43.7115991 C24.2930954,43.7547518 24.338706,43.7943566 24.387388,43.8300041 C24.398562,43.835792 24.4098361,43.8413874 24.4212054,43.8467876 C24.4268415,43.8468309 24.4324779,43.8468309 24.438114,43.8467876 C24.4601636,43.8646273 24.4829077,43.8816043 24.5062942,43.8976795 C24.5119303,43.8977228 24.5175667,43.8977228 24.5232028,43.8976795 C24.5511158,43.9100483 24.5795402,43.9212472 24.6084007,43.9312465 C24.613975,43.9369021 24.6196115,43.942497 24.6253094,43.94803 C24.653491,43.9547463 24.681931,43.9603452 24.7105618,43.9648135 C24.7440563,43.9776654 24.7781697,43.9888681 24.8127774,43.9983805 C24.8184135,43.9984239 24.8240499,43.9984239 24.8296861,43.9983805 C24.8353222,43.9984239 24.8409586,43.9984239 24.8465947,43.9983805 C24.8749832,43.9994816 24.9034041,43.9994816 24.9317926,43.9983805 C24.9374287,43.9984239 24.9430651,43.9984239 24.9487013,43.9983805 C24.9771079,43.999483 25.0055471,43.999483 25.0339537,43.9983805 C25.0395898,43.9984239 25.0452262,43.9984239 25.0508623,43.9983805 C25.0905952,44.0005398 25.1304174,44.0005398 25.1701503,43.9983805 C25.198781,43.9939122 25.2272211,43.9883133 25.2554027,43.981597 C25.2611005,43.976064 25.266737,43.9704691 25.2723113,43.9648135 C25.30665,43.9608306 25.3407786,43.9552298 25.3745815,43.94803 C25.3859508,43.9426298 25.3972249,43.9370345 25.4083988,43.9312465 C25.4611998,43.912631 25.5124775,43.8900056 25.5617768,43.8635711 C25.5674746,43.858038 25.5731112,43.8524432 25.5786855,43.8467876 C25.6020719,43.8307124 25.624816,43.8137354 25.6468656,43.7958956 C25.6525634,43.7903626 25.6582,43.7847678 25.6637743,43.7791121 C25.6871607,43.7630369 25.7099048,43.74606 25.7319544,43.7282202 C25.7376522,43.7226872 25.7432887,43.7170924 25.748863,43.7114367 C25.7990375,43.6650378 25.8446929,43.6140465 25.8852233,43.5591399 L48.7085424,18.7391033 C49.0623524,18.3608265 49.0980102,17.7872615 48.7937403,17.3686761 L40.0666862,5.45780189 C39.8526776,5.15731255 39.4995796,4.98526161 39.1291824,5.0009928 L39.1313096,5.00134471 Z M12.3706709,7.18387705 L22.6828853,7.18387705 L15.5580638,15.8632498 L12.3706709,7.18387705 Z M27.3191328,7.18387705 L37.6313472,7.18387705 L34.4439543,15.8632498 L27.3191328,7.18387705 Z M25.001009,7.8098747 L32.5178389,16.9291377 L17.4841792,16.9291377 L25.001009,7.8098747 Z M10.4956633,8.36819693 L13.6319484,16.9291377 L4.24016547,16.9291377 L10.4956633,8.36819693 Z M39.5063548,8.36819693 L45.7618526,16.9291377 L36.3700697,16.9291377 L39.5063548,8.36819693 Z M4.56399372,19.0947512 L14.433092,19.0947512 L21.8306339,37.8577835 L4.56399372,19.0947512 L4.56399372,19.0947512 Z M16.8023781,19.0947512 L33.19964,19.0947512 L25.001009,39.9557215 L16.8023781,19.0947512 L16.8023781,19.0947512 Z M35.5689261,19.0947512 L45.4380244,19.0947512 L28.1713842,37.8577835 L35.5689261,19.0947512 L35.5689261,19.0947512 Z" id="Shape" fill="#858585" fill-rule="nonzero"></path>
                            <rect id="Rectangle-2" x="0" y="0" width="49" height="49"></rect>
                        </g>
                    </g>
                </g>
            </g>
        </g>
    </g>
</svg>