<?xml version="1.0" encoding="UTF-8"?>
<svg width="38px" height="43px" viewBox="0 0 38 43" version="1.1" xmlns="http://www.w3.org/2000/svg" xmlns:xlink="http://www.w3.org/1999/xlink">
    <!-- Generator: Sketch 42 (36781) - http://www.bohemiancoding.com/sketch -->
    <title>app icon with bubble</title>
    <desc>Created with Sketch.</desc>
    <defs></defs>
    <g id="ShedWool" stroke="none" stroke-width="1" fill="none" fill-rule="evenodd">
        <g id="Shedwool-project-page" transform="translate(-179.000000, -6849.000000)">
            <g id="1.3-interview-takeaways" transform="translate(0.000000, 5276.000000)">
                <g id="takeaways" transform="translate(173.000000, 811.000000)">
                    <g id="shedwool-takeaways" transform="translate(0.000000, 759.000000)">
                        <g id="app-icon-with-bubble">
                            <path d="M21.1666667,9 L17.8333333,9 C17.3733333,9 17,8.552 17,8 C17,7.448 17.3733333,7 17.8333333,7 L21.1666667,7 C21.6266667,7 22,7.448 22,8 C22,8.552 21.6266667,9 21.1666667,9 Z" id="Shape" fill="#858585"></path>
                            <path d="M29.1428571,3 L9.85714286,3 C7.72992857,3 6,4.75322727 6,6.90909091 L6,42.0909091 C6,44.2467727 7.72992857,46 9.85714286,46 L29.1428571,46 C31.2700714,46 33,44.2467727 33,42.0909091 L33,36.2272727 C33,35.6868409 32.5689643,35.25 32.0357143,35.25 C31.5024643,35.25 31.0714286,35.6868409 31.0714286,36.2272727 L7.92857143,36.2272727 L7.92857143,12.7727273 L31.0714286,12.7727273 C31.0714286,13.3121818 31.5024643,13.75 32.0357143,13.75 C32.5689643,13.75 33,13.3121818 33,12.7727273 L33,6.90909091 C33,4.75322727 31.2700714,3 29.1428571,3 Z M31.0714286,38.1818182 L31.0714286,42.0909091 C31.0714286,43.1688409 30.2064643,44.0454545 29.1428571,44.0454545 L9.85714286,44.0454545 C8.79353571,44.0454545 7.92857143,43.1688409 7.92857143,42.0909091 L7.92857143,38.1818182 L31.0714286,38.1818182 Z M7.92857143,10.8181818 L7.92857143,6.90909091 C7.92857143,5.83115909 8.79353571,4.95454545 9.85714286,4.95454545 L29.1428571,4.95454545 C30.2064643,4.95454545 31.0714286,5.83115909 31.0714286,6.90909091 L31.0714286,10.8181818 L7.92857143,10.8181818 Z" id="Shape" fill="#858585"></path>
                            <path d="M40,38 C39.721,38 39.447,37.883 39.254,37.666 L35.981,34 L21,34 C20.448,34 20,33.553 20,33 L20,17 C20,16.448 20.448,16 21,16 L43,16 C43.553,16 44,16.448 44,17 L44,33 C44,33.553 43.553,34 43,34 L41,34 L41,37 C41,37.415 40.744,37.786 40.356,37.935 C40.24,37.979 40.12,38 40,38 Z M22,32 L36.429,32 C36.714,32 36.986,32.121 37.175,32.334 L39,34.379 L39,33 C39,32.447 39.447,32 40,32 L42,32 L42,18 L22,18 L22,32 Z" id="Shape" fill="#858585"></path>
                            <ellipse id="Oval" fill="#858585" cx="28" cy="25" rx="2" ry="2"></ellipse>
                            <ellipse id="Oval" fill="#858585" cx="32" cy="25" rx="2" ry="2"></ellipse>
                            <ellipse id="Oval" fill="#858585" cx="37" cy="25" rx="2" ry="2"></ellipse>
                            <rect id="Rectangle-6" x="0" y="0" width="49" height="49"></rect>
                        </g>
                    </g>
                </g>
            </g>
        </g>
    </g>
</svg>