<?xml version="1.0" encoding="UTF-8"?>
<svg width="49px" height="47px" viewBox="0 0 49 47" version="1.1" xmlns="http://www.w3.org/2000/svg" xmlns:xlink="http://www.w3.org/1999/xlink">
    <!-- Generator: Sketch 42 (36781) - http://www.bohemiancoding.com/sketch -->
    <title>Check Icon</title>
    <desc>Created with Sketch.</desc>
    <defs></defs>
    <g id="ShedWool" stroke="none" stroke-width="1" fill="none" fill-rule="evenodd">
        <g id="Shedwool-project-page" transform="translate(-687.000000, -3555.000000)" fill="#858585">
            <g id="1.1-testing-takeaways" transform="translate(0.000000, 3360.000000)">
                <g id="testing-takeaways" transform="translate(204.000000, 189.000000)">
                    <g id="Free-Shift" transform="translate(483.000000, 0.000000)">
                        <g id="Check-Icon" transform="translate(0.000000, 6.000000)">
                            <path d="M22.2064574,0.668127398 C20.5486904,0.709898497 18.878773,0.932424531 17.2407504,1.3448192 C5.05240386,4.40322309 -2.36995742,16.7978473 0.688140481,28.9881728 C3.74699778,41.1784983 16.1403819,48.6190702 28.3294878,45.5599068 C40.5185937,42.5015029 47.9401955,30.0886514 44.8820976,17.8990853 C44.4249397,16.5639291 42.428481,17.0796123 42.6752855,18.4686912 C45.433421,29.4628443 38.7712176,40.576235 27.777405,43.3354059 C16.7843518,46.0945769 5.67207307,39.4309474 2.91317819,28.4367943 C0.154283311,17.4418816 6.79902049,6.328491 17.7928331,3.56932006 C23.6926003,2.08910422 29.9462472,3.29363081 34.8610746,6.88062897 C35.3653152,7.30441575 36.1224355,7.21555723 36.5135258,6.68468455 C36.9053754,6.15381186 36.7686837,5.40269156 36.2143228,5.04725748 C32.1173677,2.05948472 27.1843148,0.540535679 22.2064574,0.668127398 Z M47.6941504,2.92908304 L47.6941504,2.92908304 C47.4420301,2.97009467 47.207376,3.09464849 47.0357519,3.28451712 C40.8770298,9.72865842 29.7237435,21.9243003 23.2923973,28.6859019 L14.4286976,20.8716686 C13.9662239,20.3909212 13.1916374,20.411427 12.752705,20.9126802 C12.3137727,21.4139334 12.3965471,22.1855595 12.9334419,22.5804862 L22.6157732,31.1245746 C23.0729311,31.5217798 23.7609462,31.4891224 24.1824124,31.053184 C30.5332623,24.4077819 42.3662103,11.4488682 48.6730151,4.85131305 C49.4324137,4.07133272 48.7709775,2.77490972 47.6941504,2.92908304 Z" id="Page-1"></path>
                        </g>
                    </g>
                </g>
            </g>
        </g>
    </g>
</svg>