<?xml version="1.0" encoding="UTF-8"?>
<svg width="49px" height="50px" viewBox="0 0 49 50" version="1.1" xmlns="http://www.w3.org/2000/svg" xmlns:xlink="http://www.w3.org/1999/xlink">
    <!-- Generator: Sketch 42 (36781) - http://www.bohemiancoding.com/sketch -->
    <title>Nav Icon</title>
    <desc>Created with Sketch.</desc>
    <defs></defs>
    <g id="ShedWool" stroke="none" stroke-width="1" fill="none" fill-rule="evenodd">
        <g id="Shedwool-project-page" transform="translate(-687.000000, -3719.000000)" fill="#858585">
            <g id="1.1-testing-takeaways" transform="translate(0.000000, 3360.000000)">
                <g id="testing-takeaways" transform="translate(204.000000, 189.000000)">
                    <g id="Navigation" transform="translate(483.000000, 169.000000)">
                        <g id="Nav-Icon" transform="translate(24.500000, 25.556818) rotate(-180.000000) translate(-24.500000, -25.556818) translate(0.000000, 0.556818)">
                            <path d="M24.5,0.201668409 C10.9822141,0.201668409 0,11.1838714 0,24.7016684 C0,38.219432 10.9822141,49.2016684 24.5,49.2016684 C38.0177859,49.2016684 49,38.219432 49,24.7016684 C49,11.1838714 38.0177859,0.201668409 24.5,0.201668409 Z M24.5,2.42894114 C36.8140786,2.42894114 46.7727273,12.3875786 46.7727273,24.7016684 C46.7727273,37.0157582 36.8140786,46.9743957 24.5,46.9743957 C12.1859214,46.9743957 2.22727273,37.0157582 2.22727273,24.7016684 C2.22727273,12.3875786 12.1859214,2.42894114 24.5,2.42894114 Z M15.434304,13.0084866 C15.1035081,13.0566884 14.8118569,13.2509262 14.6398664,13.5375769 C14.467876,13.8242276 14.4337373,14.172973 14.546875,14.4875349 L23.4559659,38.9875349 C23.6180759,39.4239118 24.0344847,39.7134337 24.5,39.7134337 C24.9655153,39.7134337 25.3819241,39.4239118 25.5440341,38.9875349 L34.453125,14.4875349 C34.5957447,14.0792227 34.4890819,13.6252629 34.1795492,13.3231889 C33.8700165,13.0211148 33.4135906,12.9255542 33.0088778,13.0780889 L24.5,16.3145945 L15.9911222,13.0780889 C15.8144988,13.007744 15.6228084,12.9837828 15.434304,13.0084866 Z M17.4701705,16.0187849 L24.0997869,18.5418673 C24.3573773,18.6410546 24.6426227,18.6410546 24.9002131,18.5418673 L31.5298295,16.0187849 L24.5,35.3682167 L17.4701705,16.0187849 Z" id="Shape"></path>
                        </g>
                    </g>
                </g>
            </g>
        </g>
    </g>
</svg>