<?xml version="1.0" encoding="UTF-8"?>
<svg width="49px" height="39px" viewBox="0 0 49 39" version="1.1" xmlns="http://www.w3.org/2000/svg" xmlns:xlink="http://www.w3.org/1999/xlink">
    <!-- Generator: Sketch 42 (36781) - http://www.bohemiancoding.com/sketch -->
    <title>speech bubbles round</title>
    <desc>Created with Sketch.</desc>
    <defs></defs>
    <g id="ShedWool" stroke="none" stroke-width="1" fill="none" fill-rule="evenodd">
        <g id="Shedwool-project-page" transform="translate(-179.000000, -6454.000000)">
            <g id="1.3-interview-takeaways" transform="translate(0.000000, 5276.000000)">
                <g id="takeaways" transform="translate(173.000000, 811.000000)">
                    <g id="employee-takeaways" transform="translate(5.000000, 362.000000)">
                        <g id="speech-bubbles-round" transform="translate(1.000000, 0.000000)">
                            <path d="M36.6291528,20.5872093 C36.6291528,12.2270388 28.4721435,5.42732558 18.4485972,5.42732558 C8.42505093,5.42732558 0.268041667,12.2270388 0.268041667,20.5872093 C0.268041667,25.0219806 2.54465123,29.1515329 6.54841358,32.0379748 L4.4152284,36.3049767 C4.21322222,36.7092403 4.304125,37.2004205 4.63945525,37.5056395 C4.82934105,37.6794729 5.07376852,37.7684109 5.31819599,37.7684109 C5.5020216,37.7684109 5.68988735,37.7178779 5.85553241,37.6127694 L10.9925494,34.4008953 C13.3620818,35.2943178 15.8709985,35.747093 18.4485972,35.747093 C28.4741636,35.747093 36.6291528,28.9473798 36.6291528,20.5872093 Z M18.4485972,33.7257752 C15.953821,33.7257752 13.5358071,33.2588508 11.2652577,32.3371298 C10.9683086,32.2158508 10.6248981,32.2461705 10.3501698,32.4179826 L7.82711265,33.9966318 L8.7482608,32.1531899 C8.97854784,31.6943508 8.82704321,31.1324244 8.39475,30.8534826 C4.51421142,28.3349205 2.2881034,24.5934612 2.2881034,20.5872093 C2.2881034,13.3428062 9.53810494,7.44864341 18.4485972,7.44864341 C27.3590895,7.44864341 34.609091,13.3428062 34.609091,20.5872093 C34.609091,27.8316124 27.3590895,33.7257752 18.4485972,33.7257752 Z" id="Shape" fill="#858585"></path>
                            <path d="M48.7535633,26.6552054 C48.7535633,20.839874 44.8568642,15.630938 38.5825525,13.061843 C38.0714769,12.851626 37.4775787,13.0982267 37.2654722,13.6136628 C37.0533657,14.1311202 37.3018333,14.721345 37.8169491,14.931562 C43.3175772,17.1812888 46.7335015,21.6746783 46.7335015,26.6531841 C46.7335015,30.659436 44.5073935,34.4008953 40.6268549,36.9194574 C40.1945617,37.1983992 40.0430571,37.7583043 40.2733441,38.2191647 L41.1944923,40.0626066 L38.6714352,38.4839574 C38.3967068,38.3121453 38.0532963,38.2818256 37.7563472,38.4031047 C32.6920525,40.4547422 26.6278272,40.179843 21.8685617,37.6875581 C21.3736466,37.4288295 20.763588,37.6208547 20.5050201,38.1140562 C20.2464522,38.6092791 20.436338,39.2197171 20.9312531,39.4784457 C26.0581698,42.1667984 32.5405478,42.5346783 38.0290556,40.4668702 L43.1660725,43.6787442 C43.3296975,43.7818314 43.5175633,43.8323643 43.7013889,43.8323643 C43.9458164,43.8323643 44.1902438,43.7434264 44.3821497,43.5736357 C44.7174799,43.2684167 44.8083827,42.7772364 44.6063765,42.3729729 L42.4731914,38.1059709 C46.4769537,35.2195291 48.7535633,31.0899767 48.7535633,26.6552054 Z" id="Shape" fill="#858585"></path>
                            <rect id="Rectangle-6" x="0" y="0" width="49" height="49"></rect>
                        </g>
                    </g>
                </g>
            </g>
        </g>
    </g>
</svg>