<?xml version="1.0" encoding="UTF-8"?>
<svg width="49px" height="33px" viewBox="0 0 49 33" version="1.1" xmlns="http://www.w3.org/2000/svg" xmlns:xlink="http://www.w3.org/1999/xlink">
    <!-- Generator: Sketch 42 (36781) - http://www.bohemiancoding.com/sketch -->
    <title>speech bubble alt</title>
    <desc>Created with Sketch.</desc>
    <defs></defs>
    <g id="ShedWool" stroke="none" stroke-width="1" fill="none" fill-rule="evenodd">
        <g id="Shedwool-project-page" transform="translate(-180.000000, -6095.000000)">
            <g id="1.3-interview-takeaways" transform="translate(0.000000, 5276.000000)">
                <g id="takeaways" transform="translate(173.000000, 811.000000)">
                    <g id="management-takeaways" transform="translate(7.000000, 0.000000)">
                        <g id="speech-bubble-alt">
                            <path d="M43.7724809,8 L23.4131875,8 C22.851271,8 22.3952228,8.45567203 22.3952228,9.01712506 C22.3952228,9.5785781 22.851271,10.0342501 23.4131875,10.0342501 L43.7724809,10.0342501 C45.4561945,10.0342501 46.8263749,11.4033005 46.8263749,13.0856253 L46.8263749,25.2911261 C46.8263749,26.973451 45.4561945,28.3425013 43.7724809,28.3425013 L41.7365516,28.3425013 C41.408767,28.3425013 41.1013416,28.5011728 40.9099643,28.7656253 C40.7206228,29.0321121 40.6676887,29.3738661 40.7715211,29.6830721 L41.7772702,32.6957966 L36.2395424,28.5459263 C36.0624165,28.4137001 35.8486439,28.3425013 35.6287635,28.3425013 L33.5928342,28.3425013 C33.0309177,28.3425013 32.5748695,28.7981733 32.5748695,29.3596264 C32.5748695,29.9210794 33.0309177,30.3767514 33.5928342,30.3767514 L35.2887633,30.3767514 L43.1617021,36.2760768 C43.3428998,36.4123716 43.5587084,36.4795018 43.7724809,36.4795018 C43.9821817,36.4795018 44.1898464,36.4164401 44.3669723,36.2882823 C44.7293677,36.0278983 44.8779906,35.5640893 44.7375114,35.1409652 L43.1494866,30.3767514 L43.7724809,30.3767514 C46.5779916,30.3767514 48.8623043,28.0943228 48.8623043,25.2911261 L48.8623043,13.0856253 C48.8623043,10.2824286 46.5779916,8 43.7724809,8 Z" id="Shape" fill="#858585"></path>
                            <path d="M25.4491168,12.0685003 L5.08982336,12.0685003 C2.28431273,12.0685003 0,14.3509289 0,17.1541256 L0,29.3596264 C0,32.162823 2.28431273,34.4452517 5.08982336,34.4452517 L5.71281774,34.4452517 L4.12479285,39.2094655 C3.98431373,39.6325895 4.1349725,40.0963985 4.495332,40.3567826 C4.67245785,40.4849403 4.88012264,40.5480021 5.08982336,40.5480021 C5.30359595,40.5480021 5.51940446,40.4808718 5.70060217,40.3445771 L13.5735409,34.4452517 L25.4491168,34.4452517 C28.2546275,34.4452517 30.5389402,32.162823 30.5389402,29.3596264 L30.5389402,17.1541256 C30.5389402,14.3509289 28.2546275,12.0685003 25.4491168,12.0685003 Z M28.5030108,29.3596264 C28.5030108,31.0419512 27.1328304,32.4110016 25.4491168,32.4110016 L13.2335407,32.4110016 C13.0116244,32.4110016 12.7978519,32.4822003 12.6227619,32.6144266 L7.08503412,36.7642968 L8.09078322,33.7515724 C8.19665155,33.4403321 8.14371738,33.0985781 7.95234002,32.8341256 C7.76096267,32.5676388 7.45353733,32.4110016 7.12575271,32.4110016 L5.08982336,32.4110016 C3.4061098,32.4110016 2.03592935,31.0419512 2.03592935,29.3596264 L2.03592935,17.1541256 C2.03592935,15.4718007 3.4061098,14.1027504 5.08982336,14.1027504 L25.4491168,14.1027504 C27.1328304,14.1027504 28.5030108,15.4718007 28.5030108,17.1541256 L28.5030108,29.3596264 Z" id="Shape" fill="#858585"></path>
                            <rect id="Rectangle-6" x="0" y="0" width="49" height="49"></rect>
                        </g>
                    </g>
                </g>
            </g>
        </g>
    </g>
</svg>