<?xml version="1.0" encoding="UTF-8"?>
<svg width="50px" height="47px" viewBox="0 0 50 47" version="1.1" xmlns="http://www.w3.org/2000/svg" xmlns:xlink="http://www.w3.org/1999/xlink">
    <!-- Generator: Sketch 42 (36781) - http://www.bohemiancoding.com/sketch -->
    <title>noun_843324_cc copy</title>
    <desc>Created with Sketch.</desc>
    <defs></defs>
    <g id="ShedWool" stroke="none" stroke-width="1" fill="none" fill-rule="evenodd">
        <g id="Shedwool-project-page" transform="translate(-372.000000, -13756.000000)" fill-rule="nonzero" fill="#4A4A4A">
            <g id="3.0-final-design" transform="translate(0.000000, 13040.000000)">
                <g id="noun_843324_cc-copy" transform="translate(372.000000, 716.000000)">
                    <g id="Artboard-15">
                        <path d="M2.85475265,27.8809 C2.3499707,28.9961257 2.3287381,30.2704275 2.79608606,31.401851 C3.26343402,32.5332745 4.1777707,33.4211282 5.32243795,33.8550293 C4.80555646,34.9733663 4.77730504,36.256345 5.24445741,37.3963505 C5.71160978,38.5363561 6.63203857,39.4305839 7.78505612,39.8646284 C7.45470924,40.587251 7.32182915,41.3845316 7.39995534,42.1752331 C7.65917524,44.4941712 9.62702263,46.2433689 11.9603594,46.2289256 L13.5514337,46.2289256 L32.8064729,46.4518786 L32.8318085,46.4518786 C34.0883308,46.4518786 35.1069434,45.4332661 35.1069434,44.1767437 L35.1069434,24.6734158 C35.1077211,23.6778592 34.4800779,22.7902216 33.5412047,22.4590863 C32.4612479,22.0773609 31.5784004,21.2802445 31.0887207,20.2447568 L24.6230812,6.49260507 C24.1301652,4.69464033 22.3985426,3.52574674 20.546695,3.74093066 C18.6948475,3.95611459 17.2773947,5.49092946 17.2098911,7.35401472 C17.2037743,7.42482248 17.2037743,7.49602581 17.2098911,7.56683357 L18.780697,19.2211994 L4.5927733,19.2211994 C2.15307474,19.2174815 0.136605096,21.1226669 0.00196657122,23.5586504 C-0.0539665441,25.4556886 1.08771065,27.1834132 2.85475265,27.8758329 L2.85475265,27.8809 Z M4.61810888,21.7496901 L19.0847239,21.7496901 C19.7431941,21.7501319 20.36956,21.4652688 20.801995,20.9686973 C21.23443,20.4721259 21.4305151,19.8125565 21.3395903,19.1603941 L19.748516,7.35401472 C19.7941213,6.94256009 20.0418194,6.58091023 20.4089878,6.3896979 C20.7761561,6.19848558 21.2144776,6.20287311 21.5777448,6.40139699 C21.8873168,6.57063084 22.1102602,6.86358952 22.1908658,7.20706837 C22.210998,7.29256365 22.2398633,7.37576361 22.2770067,7.45535703 L28.8085187,21.3240524 C29.5697404,22.9293488 30.9252394,24.1758264 32.588587,24.8000937 L32.588587,43.8929853 L13.5818364,43.6750993 L11.9755607,43.6750993 C10.9565431,43.6847722 10.0887898,42.936335 9.94871448,41.9269444 C9.86009782,41.1631081 10.232026,40.4192517 10.8962651,40.0318432 C11.394629,39.7467401 11.6389276,39.1621059 11.4915819,38.6071829 C11.3442361,38.0522599 10.8420945,37.665824 10.2679428,37.6655002 L9.51294254,37.6655002 C8.49392492,37.6751731 7.62617163,36.9267359 7.4860963,35.9173453 C7.40236659,35.1479543 7.78498667,34.4026423 8.4589825,34.0222441 C8.95734636,33.737141 9.20164498,33.1525068 9.05429926,32.5975838 C8.90695354,32.0426608 8.40481188,31.6562249 7.83066016,31.6559011 L7.05539148,31.6559011 C6.03637386,31.665574 5.16862057,30.9171368 5.02854524,29.9077462 C4.94481553,29.1383552 5.3274356,28.3930432 6.00143144,28.012645 C6.4997953,27.7275419 6.74409392,27.1429077 6.59674819,26.5879847 C6.44940247,26.0330617 5.94726082,25.6466258 5.3731091,25.646302 L4.48636387,25.646302 C3.95552675,25.6467051 3.4474474,25.4307703 3.07932842,25.048309 C2.71120944,24.6658477 2.51484224,24.14989 2.53552437,23.6194558 C2.61899734,22.537995 3.53908808,21.7139331 4.62317599,21.7496901 L4.61810888,21.7496901 Z M49.1529878,25.8945907 L49.1529878,42.6616762 C49.1501986,44.2696516 47.8473718,45.5724784 46.2393964,45.5752676 L38.8414076,45.5752676 C38.1417849,45.5752676 37.5746287,45.0081114 37.5746287,44.3084888 C37.5746287,43.6088661 38.1417849,43.0417099 38.8414076,43.0417099 L46.2393964,43.0417099 C46.4492832,43.0417099 46.61943,42.871563 46.61943,42.6616762 L46.61943,25.8945907 C46.61943,25.6847039 46.4492832,25.514557 46.2393964,25.514557 L38.8414076,25.514557 C38.1417849,25.514557 37.5746287,24.9474008 37.5746287,24.2477781 C37.5746287,23.5481554 38.1417849,22.9809992 38.8414076,22.9809992 L46.2393964,22.9809992 C47.8473718,22.9837884 49.1501986,24.2866153 49.1529878,25.8945907 L49.1529878,25.8945907 Z M42.8849658,0.00669710717 C41.505092,0.00278567808 40.1629963,0.457280213 39.0694278,1.29881158 C36.4495875,-0.715164683 32.716202,-0.34932383 30.5371485,2.13490428 C28.3580949,4.61913239 28.4819311,8.36835516 30.8201636,10.7033781 L37.6354341,17.5186486 C38.015809,17.9007976 38.5327741,18.1156364 39.0719614,18.1156364 C39.6111487,18.1156364 40.1281137,17.9007976 40.5084886,17.5186486 L47.3136249,10.7135124 C49.1105645,8.92194738 49.6500741,6.2237257 48.6801989,3.87893593 C47.7103237,1.53414617 45.4224243,0.00542542231 42.8849658,0.00669710717 L42.8849658,0.00669710717 Z M45.519866,8.92482055 L39.0744949,15.3701916 L32.6139225,8.90961921 C31.6342648,7.97399872 31.2380983,6.5812248 31.5786741,5.27007146 C31.9192499,3.95891812 32.9431559,2.93501209 34.2543092,2.59443629 C35.5654626,2.25386048 36.9582365,2.65002703 37.893857,3.62968476 L38.1725483,3.90837612 C38.67516,4.38581302 39.4636956,4.38581302 39.9663073,3.90837612 L40.2399315,3.63475187 C41.1840061,2.6915824 42.5595419,2.32371568 43.8483879,2.66972354 C45.137234,3.0157314 46.1435838,4.02304702 46.4883552,5.31222434 C46.8331266,6.60140167 46.4639406,7.97658399 45.519866,8.91975344 L45.519866,8.92482055 Z M42.0640931,39.7683532 C41.3644705,39.7683532 40.7973142,39.2011969 40.7973142,38.5015743 C40.7973142,37.8019516 41.3644705,37.2347954 42.0640931,37.2347954 C42.7637158,37.2347954 43.330872,37.8019516 43.330872,38.5015743 C43.330872,39.2011969 42.7637158,39.7683532 42.0640931,39.7683532 L42.0640931,39.7683532 Z" id="Shape"></path>
                    </g>
                </g>
            </g>
        </g>
    </g>
</svg>