<?xml version="1.0" encoding="UTF-8"?>
<svg width="38px" height="38px" viewBox="0 0 38 38" version="1.1" xmlns="http://www.w3.org/2000/svg" xmlns:xlink="http://www.w3.org/1999/xlink">
    <!-- Generator: Sketch 42 (36781) - http://www.bohemiancoding.com/sketch -->
    <title>cent</title>
    <desc>Created with Sketch.</desc>
    <defs></defs>
    <g id="Collaborate.biz" stroke="none" stroke-width="1" fill="none" fill-rule="evenodd">
        <g id="Collaborate.biz-project-page" transform="translate(-678.000000, -5218.000000)">
            <g id="1.3-competitive-landscape" transform="translate(0.000000, 3978.000000)">
                <g id="competitive-ends" transform="translate(193.000000, 1234.000000)">
                    <g id="low-end" transform="translate(479.000000, 0.000000)">
                        <g id="cent">
                            <path d="M24.9148495,43.6767578 C35.3381319,43.6767578 43.6767578,35.2223176 43.6767578,24.9148495 C43.6767578,14.6073813 35.3381319,6.15294118 24.9148495,6.15294118 C14.4915671,6.15294118 6.15294118,14.4915671 6.15294118,24.9148495 C6.15294118,35.3381319 14.4915671,43.6767578 24.9148495,43.6767578 Z M24.9148495,9.0482974 C33.7167324,9.0482974 40.7814016,16.2287808 40.7814016,24.9148495 C40.7814016,33.6009182 33.7167324,40.7814016 24.9148495,40.7814016 C16.1129666,40.7814016 9.0482974,33.7167324 9.0482974,24.9148495 C9.0482974,16.1129666 16.1129666,9.0482974 24.9148495,9.0482974 Z" id="Shape" fill="#858585" fill-rule="nonzero"></path>
                            <path d="M23.756707,31.9795187 L23.756707,34.6432464 C23.756707,35.4539461 24.4515925,36.0330174 25.146478,36.0330174 C25.8413635,36.0330174 26.536249,35.3381319 26.536249,34.6432464 L26.536249,31.9795187 C27.92602,31.7478902 29.1999767,31.0530047 30.2423049,30.0106764 C30.8213762,29.4316052 30.8213762,28.5050912 30.2423049,27.92602 C29.6632337,27.3469487 28.7367197,27.3469487 28.1576485,27.92602 C27.3469487,28.7367197 26.1888062,29.1999767 25.0306637,29.1999767 C22.7143788,29.1999767 21.0929793,27.3469487 21.0929793,24.7990352 C21.0929793,22.2511218 22.7143788,20.3980938 25.0306637,20.3980938 C26.1888062,20.3980938 27.3469487,20.8613508 28.1576485,21.6720505 C28.7367197,22.2511218 29.6632337,22.2511218 30.2423049,21.6720505 C30.8213762,21.0929793 30.8213762,20.1664653 30.2423049,19.587394 C29.1999767,18.5450658 27.92602,17.8501803 26.536249,17.6185518 L26.536249,14.9548241 C26.536249,14.1441243 25.8413635,13.5650531 25.146478,13.5650531 C24.4515925,13.5650531 23.756707,14.2599386 23.756707,15.0706383 L23.756707,17.7343661 C20.6297223,18.4292516 18.3134373,21.2087935 18.3134373,24.7990352 C18.3134373,28.5050912 20.6297223,31.4004474 23.756707,31.9795187 Z" id="Shape" fill="#858585" fill-rule="nonzero"></path>
                            <rect id="Rectangle" x="0" y="0" width="49" height="49"></rect>
                        </g>
                    </g>
                </g>
            </g>
        </g>
    </g>
</svg>