<?xml version="1.0" encoding="UTF-8"?>
<svg width="48px" height="55px" viewBox="0 0 48 55" version="1.1" xmlns="http://www.w3.org/2000/svg" xmlns:xlink="http://www.w3.org/1999/xlink">
    <!-- Generator: Sketch 42 (36781) - http://www.bohemiancoding.com/sketch -->
    <title>forum-icon</title>
    <desc>Created with Sketch.</desc>
    <defs></defs>
    <g id="Collaborate.biz" stroke="none" stroke-width="1" fill="none" fill-rule="evenodd">
        <g id="Collaborate.biz-project-page" transform="translate(-863.000000, -10626.000000)">
            <g id="3.0-ideation" transform="translate(1.000000, 9228.000000)">
                <g id="forum" transform="translate(691.000000, 1395.000000)">
                    <g id="forum-icon" transform="translate(164.000000, 0.000000)">
                        <rect id="Rectangle-path" fill="#4A4A4A" fill-rule="nonzero" x="7.58522472" y="3.28179775" width="47.0317978" height="2.57202247"></rect>
                        <rect id="Rectangle-path" fill="#4A4A4A" fill-rule="nonzero" x="10.8920225" y="7.32337079" width="40.4182022" height="2.57202247"></rect>
                        <rect id="Rectangle-path" fill="#4A4A4A" fill-rule="nonzero" x="17.0161798" y="27.1653933" width="27.0680337" height="2.57202247"></rect>
                        <path d="M18.1186517,43.4546629 C18.7588764,44.5639326 19.3997191,45.6738202 20.0405618,46.7837079 L20.0405618,33.166573 C20.1035955,32.4837079 19.3861236,31.7279213 19.0023596,31.7439888 C18.687809,31.7569663 17.9332584,32.3570225 17.9925843,33.166573 C18.0339888,36.5963483 18.0766292,40.0255056 18.1186517,43.4546629 L18.1186517,43.4546629 Z" id="Shape" fill="#4A4A4A" fill-rule="nonzero"></path>
                        <path d="M23.5920787,52.0791573 C24.2323034,53.188427 24.8731461,54.2983146 25.5139888,55.4082022 L25.5139888,33.166573 C25.5770225,32.4837079 24.8595506,31.7279213 24.4757865,31.7439888 C24.161236,31.7569663 23.4066854,32.3570225 23.4660112,33.166573 C23.5080337,36.5963483 23.5500562,48.65 23.5920787,52.0791573 L23.5920787,52.0791573 Z" id="Shape" fill="#4A4A4A" fill-rule="nonzero"></path>
                        <path d="M31.4898315,56.4204494 L29.5679213,57.7503371 L29.5679213,33.166573 C29.5048876,32.4837079 30.2223596,31.7279213 30.6061236,31.7439888 C30.9206742,31.7569663 31.6752247,32.3570225 31.6158989,33.166573 L31.4898315,56.4204494 L31.4898315,56.4204494 Z" id="Shape" fill="#4A4A4A" fill-rule="nonzero"></path>
                        <path d="M37.1912921,52.9931461 L35.269382,54.3230337 L35.269382,33.166573 C35.2063483,32.4837079 35.9238202,31.7279213 36.3075843,31.7439888 C36.6221348,31.7569663 37.3766854,32.3570225 37.3173596,33.166573 L37.1912921,52.9931461 L37.1912921,52.9931461 Z" id="Shape" fill="#4A4A4A" fill-rule="nonzero"></path>
                        <path d="M43.1788764,49.1660112 L41.2569663,50.4958989 L41.2569663,33.1659551 C41.1939326,32.4830899 41.9114045,31.7273034 42.2951685,31.7433708 C42.6097191,31.7563483 43.3642697,32.3564045 43.3049438,33.1659551 L43.1788764,49.1660112 L43.1788764,49.1660112 Z" id="Shape" fill="#4A4A4A" fill-rule="nonzero"></path>
                        <ellipse id="Oval" fill="#4A4A4A" fill-rule="nonzero" cx="19.1407865" cy="24.1712921" rx="1.46707865" ry="1.46707865"></ellipse>
                        <ellipse id="Oval" fill="#4A4A4A" fill-rule="nonzero" cx="30.8564045" cy="24.1712921" rx="1.46707865" ry="1.46707865"></ellipse>
                        <ellipse id="Oval" fill="#4A4A4A" fill-rule="nonzero" cx="41.8007865" cy="24.1712921" rx="1.46707865" ry="1.46707865"></ellipse>
                        <path d="M13.7174157,15.0351124 C17.7911236,14.1056742 22.0391011,20.8960112 23.5760112,23.5168539 C24.7736517,25.5580337 25.7500562,25.6822472 25.9441011,23.8035955 C26.1634831,21.6814607 26.0491573,19.1675281 26.0491573,17.0416854 C26.029382,13.5105618 26.5608427,14.768764 28.0532584,17.0416854 C28.6014045,17.6763483 29.1495506,18.3116292 29.6976966,18.9469101 C30.5708989,20.1136517 31.4447191,20.1136517 32.3185393,18.9469101 C32.712191,18.3802247 33.1064607,17.8141573 33.5001124,17.2480899 C35.6926966,13.5420787 35.8292697,13.5420787 35.7619101,17.2480899 C35.7619101,19.3498315 35.6420225,21.5164607 35.7835393,23.6114045 C35.9522472,26.0894944 37.0225843,24.8578652 38.2282584,23.0657303 C41.0499438,18.125618 44.0205618,14.2385393 47.5282022,14.108764 C47.645618,15.3132022 46.9429775,15.5362921 46.5400562,15.815618 C46.213764,16.0411798 46.2193258,16.4132022 46.2168539,16.7796629 C46.1970787,19.7119663 50.3189888,19.5210112 51.0791011,16.9273596 C51.8416854,14.3238202 49.7016292,11.0825281 46.8119663,11.4805056 C42.9514607,12.0138202 41.5220787,14.6581461 39.6384831,16.9082022 C38.2189888,18.6039326 37.9705618,19.0748315 37.9705618,16.6844944 L37.9705618,13.0804494 C37.3544382,9.74646067 35.3101685,11.0979775 33.8529775,13.0353371 C33.0619663,14.0865169 32.1881461,15.1253371 31.5009551,16.2432584 C31.1480899,16.8173596 30.7550562,16.8297191 30.3230899,16.2778652 C29.4974719,15.2235955 28.6316854,14.1989888 27.7702247,13.1706742 C26.2870787,11.3995506 24.0110674,9.66859551 23.8905618,13.4920225 L23.8905618,18.3326404 C24.1130337,19.858427 23.8559551,20.0123034 23.1199438,18.7930337 C19.9596067,14.5462921 16.5854494,11.801236 12.7403933,12.3592697 C10.3185393,12.8826966 9.55410112,14.8120225 9.54174157,15.9367416 C9.51516854,18.4234831 13.3546629,20.3738202 14.4348876,17.4575843 C14.7896067,16.5009551 13.3837079,16.1307865 13.7174157,15.0351124 L13.7174157,15.0351124 Z" id="Shape" fill="#4A4A4A" fill-rule="nonzero"></path>
                        <rect id="Rectangle-29-Copy" x="0" y="0" width="62" height="62"></rect>
                    </g>
                </g>
            </g>
        </g>
    </g>
</svg>