<?xml version="1.0" encoding="UTF-8"?>
<svg width="56px" height="53px" viewBox="0 0 56 53" version="1.1" xmlns="http://www.w3.org/2000/svg" xmlns:xlink="http://www.w3.org/1999/xlink">
    <!-- Generator: Sketch 42 (36781) - http://www.bohemiancoding.com/sketch -->
    <title>target-icon</title>
    <desc>Created with Sketch.</desc>
    <defs></defs>
    <g id="Collaborate.biz" stroke="none" stroke-width="1" fill="none" fill-rule="evenodd">
        <g id="Collaborate.biz-project-page" transform="translate(-376.000000, -10628.000000)">
            <g id="3.0-ideation" transform="translate(1.000000, 9228.000000)">
                <g id="personality" transform="translate(211.000000, 1395.000000)">
                    <g id="target-icon" transform="translate(161.000000, 0.000000)">
                        <path d="M25.7649116,19.6589178 C25.1980823,19.9239178 24.9590579,20.5820011 25.2299522,21.1318761 C25.5008465,21.6817511 26.1723912,21.9158344 26.7483262,21.6530428 C28.4579196,20.8602511 30.2722285,20.4583345 32.1343423,20.4583345 C38.3080006,20.4583345 43.6280005,24.928001 44.508976,30.8551675 C44.5909273,31.4050425 45.0780817,31.8025425 45.6335288,31.8025425 C45.688163,31.8025425 45.7427971,31.8003341 45.7974313,31.7915008 C46.4211711,31.7053758 46.851415,31.1444592 46.7626345,30.5415842 C45.7200329,23.5345427 39.430277,18.2500012 32.1343423,18.2500012 C29.9284887,18.2500012 27.7863749,18.7247929 25.7649116,19.6589178 Z M20.2172695,15.107543 C23.7593832,12.8285431 27.8797083,11.6250014 32.1343423,11.6250014 C44.0582443,11.6250014 53.7603579,21.0369178 53.7535286,32.7455008 C53.7512522,32.7653758 53.7398701,32.9729591 53.7398701,32.9928341 C53.7307644,33.5912924 54.2179188,33.9932091 54.8348294,34.0175007 L54.875805,34.0175007 C55.4745042,34.0175007 55.9844228,33.4786674 56.0253984,32.8956674 C56.0276749,32.8691674 56.039057,32.6284591 56.039057,32.6041674 C56.039057,19.8179178 45.3171061,9.41666816 32.1366187,9.41666816 C27.4358058,9.41666816 22.8784076,10.7482931 18.9606841,13.265793 C18.4348305,13.6014597 18.2936923,14.2882513 18.6397085,14.796168 C18.9880012,15.306293 19.6959687,15.438793 20.2172695,15.107543 Z M53.6169432,51.0525835 L50.2000328,50.2244586 L50.0566181,49.6701669 C50.9421466,48.7205836 51.5727157,47.5082087 51.8345043,46.2494587 C52.4423091,45.9447087 52.8816587,45.3661254 52.9727156,44.6705004 L53.2185693,42.7492505 C53.2936912,42.1662505 53.109301,41.5788338 52.710927,41.1371672 C52.5880002,41.0024589 52.446862,40.8832089 52.2966181,40.7838339 L52.3535286,39.6112089 L52.5606831,39.4102506 C53.1480002,38.8051673 53.9424717,37.5132923 52.6858864,35.649459 C52.0894636,34.7639174 50.8601954,33.7083341 48.397106,33.7083341 C47.6709272,33.7083341 46.0341792,33.7083341 44.4452362,34.6733757 C39.7603583,34.834584 39.209464,37.2836256 39.209464,39.1320006 C39.209464,39.4963756 39.2777567,40.1787505 39.3414965,40.7485005 C39.1730412,40.8522922 39.0182445,40.9803755 38.8839356,41.1283339 C38.4787323,41.5744172 38.2920657,42.1640422 38.369464,42.7492505 L38.6153177,44.6705004 C38.708651,45.3904171 39.1798705,45.986667 39.8741794,46.2803754 C40.1291388,47.483917 40.7255615,48.649917 41.5564558,49.5752086 L41.3902769,50.2244586 L37.9733665,51.0525835 C35.2075129,51.7239169 33.2725536,54.1265835 33.2725536,56.8958334 C33.2725536,57.1895417 33.3909276,57.4722083 33.6049113,57.6775833 C33.8188951,57.8829583 34.1080007,58 34.410765,58 L57.1795448,57.9977917 C57.8078374,57.9977917 58.3177561,57.503125 58.3177561,56.893625 C58.3177561,54.1243751 56.3850732,51.7239169 53.6169432,51.0525835 Z M35.7151552,55.7894584 C36.1066999,54.5307084 37.1561307,53.5281251 38.53109,53.1924585 L42.6104395,52.2031252 C43.0179192,52.1037502 43.3366183,51.7945835 43.4390574,51.3992919 L43.9239354,49.5155836 C44.024098,49.1269169 43.8988948,48.716167 43.5961305,48.4423336 C42.7106021,47.6340837 42.1232851,46.4526254 42.0276753,45.2822087 C41.9798704,44.7102504 41.4745046,44.3922504 40.8803583,44.3922504 L40.5866997,42.6344171 C40.9145046,42.6344171 41.2240981,42.4997088 41.4403582,42.2612088 C41.6566184,42.0249172 41.756781,41.7091255 41.7158054,41.3933338 C41.6293013,40.7264172 41.4904395,39.5206672 41.4904395,39.1320006 C41.4904395,37.9880839 41.4904395,36.908209 44.8185695,36.875084 C45.0507646,36.8728756 45.2784069,36.802209 45.4696264,36.669709 C46.5532036,35.9166673 47.8006832,35.9166673 48.3993824,35.9166673 C49.576293,35.9166673 50.3548295,36.2236257 50.782797,36.8574173 C51.2449108,37.544209 51.0559677,37.7385423 50.928488,37.8732506 L50.4345043,38.3524589 C50.2341791,38.5467923 50.1158051,38.8051673 50.1021466,39.0790006 L49.9814962,41.4816672 C49.9678377,41.7820005 50.0042604,41.9917922 50.2159677,42.2104172 C50.4299515,42.4290421 50.648488,42.4732088 50.9580815,42.4754171 L50.8123905,44.2707921 C50.2182442,44.2707921 49.7265368,44.7124587 49.678732,45.2866254 C49.5785694,46.476917 48.9480003,47.7113753 48.0328784,48.5085836 C47.7210085,48.7802086 47.5866995,49.1997919 47.6891385,49.5972919 L48.1535288,51.4015002 C48.2559678,51.7967919 48.5723905,52.1081668 48.9821466,52.2053335 L53.0614961,53.1946668 C54.4319026,53.5281251 55.479057,54.5307084 55.8706017,55.7916667 L35.7151552,55.7894584 Z M9.37011533,16.041668 L13.4517412,16.041668 L27.3902774,29.5655009 C26.7938546,30.4377925 26.4432855,31.4823341 26.4432855,32.6041674 C26.4432855,35.6472507 28.9951554,38.1250006 32.1343423,38.1250006 C35.2735292,38.1250006 37.825399,35.6472507 37.825399,32.6041674 C37.825399,29.5610842 35.2735292,27.0833343 32.1343423,27.0833343 C30.9756431,27.0833343 29.9011716,27.4256259 29.0019846,28.0042093 L15.0611721,14.4803763 L15.0611721,10.5208348 C15.0611721,10.2271265 14.9405217,9.94666814 14.7288143,9.73908482 L10.175969,5.32241829 C9.85044051,5.00662663 9.36100963,4.91387663 8.93531859,5.08391829 C8.50962755,5.25395995 8.23190398,5.65808494 8.23190398,6.10416826 L8.23190398,9.41666816 L4.81726994,9.41666816 C4.35743255,9.41666816 3.94312362,9.68608482 3.76556265,10.0990431 C3.58800168,10.5120015 3.68588786,10.9867931 4.0114163,11.3025848 L8.56426169,15.7192513 C8.77824542,15.9246263 9.06735111,16.041668 9.37011533,16.041668 Z M29.0611716,31.1864175 L31.3284886,33.3859174 C31.5515781,33.6001257 31.8429602,33.7083341 32.1343423,33.7083341 C32.4257244,33.7083341 32.7171065,33.6001257 32.9401959,33.3859174 C33.3840983,32.9552924 33.3840983,32.2552508 32.9401959,31.8246258 L30.6706025,29.6229175 C31.1167813,29.4153342 31.6084886,29.2916675 32.1343423,29.2916675 C34.0169438,29.2916675 35.5489763,30.7778758 35.5489763,32.6041674 C35.5489763,34.4304591 34.0169438,35.9166673 32.1343423,35.9166673 C30.2517407,35.9166673 28.7197082,34.4304591 28.7197082,32.6041674 C28.7197082,32.0940425 28.8494643,31.6170425 29.0611716,31.1864175 Z M9.37011533,11.6250014 C9.99840799,11.6250014 10.5083267,11.1303348 10.5083267,10.5208348 L10.5083267,8.76962651 L12.7847494,10.9779598 L12.7847494,13.8333347 L9.84133482,13.8333347 L7.56491213,11.6250014 L9.37011533,11.6250014 Z M36.4208462,45.2247921 C36.2728787,44.6307504 35.6650739,44.2619588 35.0481633,44.4055004 C26.7893018,46.3002504 19.6140174,40.2162922 19.6140174,32.6041674 C19.6140174,30.7955425 20.0283264,29.0377092 20.8455621,27.3814593 C21.1164564,26.829376 20.877432,26.1712926 20.3106028,25.908501 C19.74605,25.6457093 19.0631232,25.8775843 18.7922289,26.4274593 C17.8270256,28.3862509 17.3375948,30.4642925 17.3375948,32.6041674 C17.3375948,40.5188339 23.9756433,46.9583337 32.1343423,46.9583337 C33.2543422,46.9583337 34.4130414,46.821417 35.5785698,46.5542087 C36.1886511,46.4128754 36.5665373,45.8188337 36.4208462,45.2247921 Z M30.2813342,53.4905835 C19.1928793,52.5763335 10.5083267,43.4029171 10.5083267,32.6041674 C10.5083267,28.4812092 11.748977,24.4819177 14.0982453,21.0413345 C14.4442615,20.5334178 14.2985705,19.8466262 13.7772697,19.5109595 C13.2559689,19.1775012 12.5480014,19.3122095 12.1997087,19.8223345 C9.60458686,23.6250844 8.23190398,28.0461676 8.23190398,32.6041674 C8.23190398,44.5402087 17.8338549,54.6830834 30.0901147,55.6922917 C30.1219846,55.6967084 30.1538545,55.6967084 30.1880009,55.6967084 C30.7707651,55.6967084 31.2670252,55.2616668 31.3193829,54.6852918 C31.3717407,54.0757918 30.9073504,53.5413751 30.2813342,53.4905835 Z" id="Shape" fill="#4A4A4A" fill-rule="nonzero"></path>
                        <rect id="Rectangle-29-Copy-2" x="0" y="0" width="62" height="62"></rect>
                    </g>
                </g>
            </g>
        </g>
    </g>
</svg>