<?xml version="1.0" encoding="UTF-8"?>
<svg width="59px" height="59px" viewBox="0 0 59 59" version="1.1" xmlns="http://www.w3.org/2000/svg" xmlns:xlink="http://www.w3.org/1999/xlink">
    <!-- Generator: Sketch 42 (36781) - http://www.bohemiancoding.com/sketch -->
    <title>wallflower-icon</title>
    <desc>Created with Sketch.</desc>
    <defs>
        <rect id="path-1" x="0" y="0" width="62" height="62"></rect>
    </defs>
    <g id="Collaborate.biz" stroke="none" stroke-width="1" fill="none" fill-rule="evenodd">
        <g id="Collaborate.biz-project-page" transform="translate(-378.000000, -10174.000000)">
            <g id="3.0-ideation" transform="translate(1.000000, 9228.000000)">
                <g id="wallflower" transform="translate(211.000000, 944.000000)">
                    <g id="wallflower-icon" transform="translate(164.000000, 0.000000)">
                        <mask id="mask-2" fill="white">
                            <use xlink:href="#path-1"></use>
                        </mask>
                        <g id="Mask"></g>
                        <g id="Group" mask="url(#mask-2)" fill-rule="nonzero" fill="#4A4A4A">
                            <g transform="translate(31.254834, 31.254834) rotate(45.000000) translate(-31.254834, -31.254834) translate(-0.745166, -0.745166)" id="Shape">
                                <path d="M51.7796407,19.5714389 C58.004964,18.3221393 61.8630108,21.7134984 61.8630108,26.256458 C61.8630108,27.3805197 61.6385779,28.2441794 61.1620456,29.3138566 C61.1286004,29.3889313 60.7564129,30.1914745 60.6588094,30.4245108 C60.4654272,30.8862262 60.3495989,31.2720032 60.3059307,31.6735167 C60.2940597,31.7826659 60.2879926,31.8913787 60.2879926,31.9999983 C60.2879926,32.1086218 60.2940601,32.2173384 60.3059319,32.3264915 C60.3496013,32.7280031 60.4654296,33.1137785 60.6588112,33.5754922 C60.7564144,33.8085275 61.1286001,34.6110676 61.1620455,34.6861428 C61.638578,35.7558208 61.8630108,36.6194803 61.8630108,37.743542 C61.8630108,42.2865016 58.004964,45.6778607 51.7796407,44.4285611 C46.2581394,43.3205046 39.5792054,38.607442 36.9133804,34.3757761 C36.6190017,33.9084864 36.0015475,33.7683144 35.5342579,34.0626931 C35.0669682,34.3570718 34.9267962,34.974526 35.2211749,35.4418157 C38.1748551,40.1304162 45.3193031,45.1719738 51.3861259,46.3894655 C58.8833667,47.8940139 63.8630108,43.5167313 63.8630108,37.743542 C63.8630108,36.3032901 63.5705057,35.1776759 62.988958,33.8722688 C62.9419917,33.766843 62.583804,32.994487 62.5035422,32.8028555 C62.3781098,32.5033757 62.3135946,32.288503 62.2942065,32.1102417 C62.290035,32.0718877 62.2879926,32.0352923 62.2879926,31.9999983 C62.2879926,31.9647059 62.2900349,31.9281121 62.294206,31.8897598 C62.3135935,31.7114992 62.3781082,31.4966269 62.5035405,31.1971472 C62.5838025,31.0055153 62.9419917,30.2331565 62.9889579,30.1277309 C63.5705056,28.8223246 63.8630108,27.69671 63.8630108,26.256458 C63.8630108,20.4832687 58.8833667,16.1059861 51.3861259,17.6105345 C45.319303,18.8280263 38.1748557,23.8695836 35.2211754,28.5581852 C34.9267968,29.0254748 35.0669688,29.642929 35.5342585,29.9373077 C36.0015482,30.2316864 36.6190024,30.0915143 36.913381,29.6242246 C39.579206,25.3925577 46.2581393,20.6794954 51.7796407,19.5714389 Z M12.2203627,44.4285611 C5.9950394,45.6778607 2.13699255,42.2865016 2.13699255,37.743542 C2.13699255,36.6194803 2.36142547,35.7558206 2.83795781,34.6861434 C2.87140293,34.6110687 3.24359043,33.8085255 3.34119396,33.5754892 C3.53457616,33.1137738 3.65040446,32.7279968 3.69407272,32.3264833 C3.70594368,32.2173341 3.71201074,32.1086213 3.71201074,32.0000017 C3.71201074,31.8913782 3.70594328,31.7826616 3.69407152,31.6735085 C3.6504021,31.2719969 3.53457374,30.8862215 3.3411922,30.4245078 C3.243589,30.1914725 2.87140325,29.3889324 2.83795788,29.3138572 C2.36142539,28.2441792 2.13699255,27.3805197 2.13699255,26.256458 C2.13699255,21.7134984 5.9950394,18.3221393 12.2203627,19.5714389 C17.7418628,20.6794951 24.4207953,25.3925559 27.0866215,29.6242216 C27.3810003,30.0915112 27.9984546,30.2316831 28.4657441,29.9373042 C28.9330337,29.6429254 29.0732056,29.0254712 28.7788267,28.5581816 C25.8251452,23.8695816 18.680699,18.828026 12.6138775,17.6105345 C5.11663662,16.1059861 0.136992552,20.4832687 0.136992552,26.256458 C0.136992552,27.6967099 0.429497631,28.8223241 1.01104542,30.1277312 C1.05801171,30.233157 1.41619934,31.005513 1.49646117,31.1971445 C1.62189359,31.4966243 1.68640873,31.711497 1.70579688,31.8897583 C1.70996836,31.9281123 1.71201074,31.9647077 1.71201074,32.0000017 C1.71201074,32.0352941 1.70996851,32.0718879 1.70579735,32.1102402 C1.68640989,32.2885008 1.62189516,32.5033731 1.49646283,32.8028528 C1.41620084,32.9944847 1.05801168,33.7668435 1.01104549,33.8722691 C0.429497759,35.1776754 0.136992552,36.30329 0.136992552,37.743542 C0.136992552,43.5167313 5.11663662,47.8940139 12.6138775,46.3894655 C18.6806991,45.171974 25.8251447,40.1304186 28.7788262,35.4418176 C29.073205,34.974528 28.9330331,34.3570737 28.4657435,34.0626949 C27.9984539,33.7683161 27.3809997,33.9084881 27.0866209,34.3757777 C24.4207946,38.6074443 17.7418629,43.3205048 12.2203627,44.4285611 Z"></path>
                                <path d="M19.5714406,12.220361 C18.322141,5.99503772 21.7135001,2.13699087 26.2564597,2.13699087 C27.3805214,2.13699087 28.2441811,2.36142379 29.3138583,2.83795612 C29.388933,2.87140125 30.1914762,3.24358875 30.4245124,3.34119228 C30.8862279,3.53457447 31.2720049,3.65040278 31.6735184,3.69407103 C31.7826675,3.705942 31.8913804,3.71200906 32,3.71200906 C32.1086235,3.71200906 32.2173401,3.70594159 32.3264931,3.69406983 C32.7280048,3.65040042 33.1137802,3.53457205 33.5754939,3.34119052 C33.8085292,3.24358731 34.6110692,2.87140157 34.6861445,2.8379562 C35.7558225,2.36142371 36.619482,2.13699087 37.7435436,2.13699087 C42.2865032,2.13699087 45.6778624,5.99503772 44.4285627,12.220361 C43.3205063,17.7418621 38.607444,24.4207959 34.3757781,27.086621 C33.9084884,27.3809998 33.7683165,27.998454 34.0626952,28.4657436 C34.3570739,28.9330333 34.9745281,29.0732053 35.4418178,28.7788265 C40.1304182,25.8251461 45.1719755,18.6806984 46.3894671,12.6138758 C47.8940156,5.11663493 43.516733,0.136990869 37.7435436,0.136990869 C36.3032918,0.136990869 35.1776776,0.429495947 33.8722705,1.01104373 C33.7668447,1.05801003 32.9944887,1.41619765 32.8028572,1.49645949 C32.5033774,1.6218919 32.2885047,1.68640705 32.1102434,1.70579519 C32.0718894,1.70996667 32.035294,1.71200906 32,1.71200906 C31.9647076,1.71200906 31.9281137,1.70996683 31.8897614,1.70579567 C31.7115009,1.68640821 31.4966286,1.62189348 31.1971489,1.49646115 C31.005517,1.41619916 30.2331581,1.05801 30.1277326,1.0110438 C28.8223262,0.429496076 27.6967117,0.136990869 26.2564597,0.136990869 C20.4832704,0.136990869 16.1059878,5.11663493 17.6105362,12.6138758 C18.8280277,18.6806976 23.8695834,25.8251434 28.5581845,28.7788248 C29.0254741,29.0732036 29.6429284,28.9330316 29.9373071,28.465742 C30.2316859,27.9984524 30.091514,27.3809982 29.6242243,27.0866194 C25.3925577,24.4207933 20.6794969,17.7418614 19.5714406,12.220361 Z M44.4285627,51.779639 C45.6778624,58.0049623 42.2865032,61.8630091 37.7435436,61.8630091 C36.619482,61.8630091 35.7558223,61.6385762 34.686145,61.1620439 C34.6110704,61.1285988 33.8085271,60.7564112 33.5754909,60.6588077 C33.1137755,60.4654255 32.7279985,60.3495972 32.326485,60.305929 C32.2173358,60.294058 32.108623,60.2879909 32.0000034,60.2879909 C31.8913799,60.2879909 31.7826633,60.2940584 31.6735102,60.3059302 C31.2719986,60.3495996 30.8862232,60.4654279 30.4245095,60.6588095 C30.1914742,60.7564127 29.3889341,61.1285984 29.3138589,61.1620438 C28.2441808,61.6385763 27.3805214,61.8630091 26.2564597,61.8630091 C21.7135001,61.8630091 18.322141,58.0049623 19.5714406,51.779639 C20.6794969,46.2581387 25.3925579,39.579206 29.6242237,36.91338 C30.0915132,36.6190012 30.2316851,36.0015469 29.9373063,35.5342574 C29.6429275,35.0669678 29.0254732,34.9267959 28.5581837,35.2211747 C23.8695836,38.1748561 18.8280277,45.3193025 17.6105362,51.3861242 C16.1059878,58.8833651 20.4832704,63.8630091 26.2564597,63.8630091 C27.6967116,63.8630091 28.8223258,63.5705041 30.1277329,62.9889563 C30.2331587,62.94199 31.0055147,62.5838023 31.1971462,62.5035405 C31.496626,62.3781081 31.7114987,62.313593 31.88976,62.2942048 C31.928114,62.2900333 31.9647094,62.2879909 32.0000034,62.2879909 C32.0352958,62.2879909 32.0718896,62.2900332 32.1102419,62.2942043 C32.2885025,62.3135918 32.5033748,62.3781065 32.8028545,62.5035389 C32.9944864,62.5838008 33.7668452,62.94199 33.8722707,62.9889562 C35.1776771,63.5705039 36.3032917,63.8630091 37.7435436,63.8630091 C43.516733,63.8630091 47.8940156,58.8833651 46.3894671,51.3861242 C45.1719754,45.3193015 40.1304184,38.1748544 35.4418169,35.221174 C34.9745272,34.9267953 34.357073,35.0669673 34.0626944,35.534257 C33.7683157,36.0015467 33.9084877,36.6190009 34.3757774,36.9133796 C38.6074443,39.5792047 43.3205063,46.2581378 44.4285627,51.779639 Z"></path>
                                <path d="M36.4743121,34.2341645 L46.2300683,36.8482115 C46.7635345,36.9911533 47.3118714,36.6745708 47.4548132,36.1411047 C47.597755,35.6076386 47.2811725,35.0593017 46.7477064,34.9163599 L36.9910258,32.3020651 C36.9498364,32.9932932 36.7682197,33.6467051 36.4743121,34.2341645 Z M36.9910258,31.6979349 L46.7477064,29.0836401 C47.2811725,28.9406983 47.597755,28.3923614 47.4548132,27.8588953 C47.3118714,27.3254292 46.7635345,27.0088467 46.2300683,27.1517885 L36.4743121,29.7658355 C36.7682197,30.3532949 36.9498364,31.0067068 36.9910258,31.6979349 Z M34.2341645,27.5256879 L36.8482115,17.7699317 C36.9911533,17.2364655 36.6745708,16.6881286 36.1411047,16.5451868 C35.6076386,16.402245 35.0593017,16.7188275 34.9163599,17.2522936 L32.3020651,27.0089742 C32.9932932,27.0501636 33.6467051,27.2317803 34.2341645,27.5256879 Z M31.6979349,27.0089742 L29.0836401,17.2522936 C28.9406983,16.7188275 28.3923614,16.402245 27.8588953,16.5451868 C27.3254292,16.6881286 27.0088467,17.2364655 27.1517885,17.7699317 L29.7658355,27.5256879 C30.3532949,27.2317803 31.0067068,27.0501636 31.6979349,27.0089742 Z M27.5256879,29.7658355 L17.7699317,27.1517885 C17.2364655,27.0088467 16.6881286,27.3254292 16.5451868,27.8588953 C16.402245,28.3923614 16.7188275,28.9406983 17.2522936,29.0836401 L27.0089742,31.6979349 C27.0501636,31.0067068 27.2317803,30.3532949 27.5256879,29.7658355 Z M27.0089742,32.3020651 L17.2522936,34.9163599 C16.7188275,35.0593017 16.402245,35.6076386 16.5451868,36.1411047 C16.6881286,36.6745708 17.2364655,36.9911533 17.7699317,36.8482115 L27.5256879,34.2341645 C27.2317803,33.6467051 27.0501636,32.9932932 27.0089742,32.3020651 Z M29.7658355,36.4743121 L27.1517885,46.2300683 C27.0088467,46.7635345 27.3254292,47.3118714 27.8588953,47.4548132 C28.3923614,47.597755 28.9406983,47.2811725 29.0836401,46.7477064 L31.6979349,36.9910258 C31.0067068,36.9498364 30.3532949,36.7682197 29.7658355,36.4743121 Z M32.3020651,36.9910258 L34.9163599,46.7477064 C35.0593017,47.2811725 35.6076386,47.597755 36.1411047,47.4548132 C36.6745708,47.3118714 36.9911533,46.7635345 36.8482115,46.2300683 L34.2341645,36.4743121 C33.6467051,36.7682197 32.9932932,36.9498364 32.3020651,36.9910258 Z"></path>
                                <path d="M38,32 C38,28.6862915 35.3137085,26 32,26 C28.6862915,26 26,28.6862915 26,32 C26,35.3137085 28.6862915,38 32,38 C35.3137085,38 38,35.3137085 38,32 Z M28,32 C28,29.790861 29.790861,28 32,28 C34.209139,28 36,29.790861 36,32 C36,34.209139 34.209139,36 32,36 C29.790861,36 28,34.209139 28,32 Z"></path>
                            </g>
                        </g>
                    </g>
                </g>
            </g>
        </g>
    </g>
</svg>